<?xml version="1.0" encoding="UTF-8"?>
<svg width="900" height="520" viewBox="0 0 900 520" fill="none" xmlns="http://www.w3.org/2000/svg" role="img" aria-label="Ilustração abstrata">
  <defs>
    <linearGradient id="g1" x1="0" y1="0" x2="900" y2="520" gradientUnits="userSpaceOnUse">
      <stop stop-color="#6AE4FF" stop-opacity=".20"/>
      <stop offset="1" stop-color="#A78BFA" stop-opacity=".18"/>
    </linearGradient>
    <filter id="blur" x="-20%" y="-20%" width="140%" height="140%">
      <feGaussianBlur stdDeviation="28"/>
    </filter>
  </defs>

  <rect x="40" y="44" width="820" height="432" rx="28" fill="url(#g1)"/>
  <g opacity=".9" filter="url(#blur)">
    <circle cx="270" cy="185" r="84" fill="#6AE4FF" fill-opacity=".35"/>
    <circle cx="560" cy="250" r="110" fill="#A78BFA" fill-opacity=".28"/>
    <circle cx="650" cy="170" r="60" fill="#34D399" fill-opacity=".18"/>
  </g>

  <g opacity=".85">
    <path d="M110 345C240 280 330 420 460 355C590 290 670 405 790 320" stroke="currentColor" stroke-opacity=".25" stroke-width="2"/>
    <path d="M110 318C240 253 330 395 460 328C590 261 670 378 790 292" stroke="currentColor" stroke-opacity=".18" stroke-width="2"/>
    <path d="M110 372C240 307 330 447 460 382C590 317 670 432 790 347" stroke="currentColor" stroke-opacity=".12" stroke-width="2"/>
  </g>

  <g>
    <rect x="132" y="112" width="240" height="132" rx="16" fill="white" fill-opacity=".05" stroke="white" stroke-opacity=".14"/>
    <rect x="402" y="132" width="340" height="168" rx="16" fill="white" fill-opacity=".04" stroke="white" stroke-opacity=".12"/>
    <rect x="192" y="272" width="280" height="140" rx="16" fill="white" fill-opacity=".03" stroke="white" stroke-opacity=".10"/>
  </g>
</svg>
